# xmcd
#
# Track frame offsets:
#	150
#	16800
#	34080
#	51045
#	65295
#	78905
#	98550
#	114735
#	131075
#	148035
#	167040
#	184895
#	198280
#	216610
#	231005
#	244862
#	262795
#	276435
#	287387
#	301327
#
# Disc length: 4203 seconds
#
# Revision: 1
# Processed by: cddbd v1.5.1PL0 Copyright (c) Steve Scherf et al.
# Submitted via: audiograbber 1.83.01
#
DISCID=1b106914
DTITLE=Jose Jose - 20 Exitos
DYEAR=1900
DGENRE=
TTITLE0=Y quien puede ser
TTITLE1=No me digas que te vas
TTITLE2=Amnesia
TTITLE3=Y para que
TTITLE4=Bunos dias amor
TTITLE5=El amor acaba
TTITLE6=Como ser diferente
TTITLE7=Entre ella y tu
TTITLE8=Así de fácil
TTITLE9=Como tu
TTITLE10=Insaciable amante
TTITLE11=Me vas a echar de menos
TTITLE12=40 y 20
TTITLE13=Y que
TTITLE14=Promesas
TTITLE15=O tu o yo
TTITLE16=Payaso
TTITLE17=Pero te extraño
TTITLE18=Tu me estas volviendo loco
TTITLE19=Gracias
EXTD=
EXTT0=
EXTT1=
EXTT2=
EXTT3=
EXTT4=
EXTT5=
EXTT6=
EXTT7=
EXTT8=
EXTT9=
EXTT10=
EXTT11=
EXTT12=
EXTT13=
EXTT14=
EXTT15=
EXTT16=
EXTT17=
EXTT18=
EXTT19=
PLAYORDER=
